<?xml version="1.0" encoding="utf-8"?>
<!-- Generator: Adobe Illustrator 21.1.0, SVG Export Plug-In . SVG Version: 6.00 Build 0)  -->
<svg version="1.1" id="レイヤー_1" xmlns="http://www.w3.org/2000/svg" xmlns:xlink="http://www.w3.org/1999/xlink" x="0px"
	 y="0px" viewBox="0 0 178.8 50" style="enable-background:new 0 0 178.8 50;" xml:space="preserve">
<style type="text/css">
	.st0{fill:#006600;}
	.st1{fill:#333333;}
	.st2{fill:#DADBDB;}
	.st3{fill:url(#SVGID_1_);}
	.st4{fill:#FFFFFF;}
	.st5{fill:url(#SVGID_2_);}
	.st6{fill:url(#SVGID_3_);}
	.st7{fill:url(#SVGID_4_);}
	.st8{fill:url(#SVGID_5_);}
	.st9{fill:url(#SVGID_6_);}
	.st10{fill:url(#SVGID_7_);}
	.st11{fill:url(#SVGID_8_);}
	.st12{fill:url(#SVGID_9_);}
	.st13{fill:url(#SVGID_10_);}
	.st14{fill:url(#SVGID_11_);}
	.st15{fill:url(#SVGID_12_);}
	.st16{fill:#231815;}
</style>
<path class="st0" d="M304,1.2c-0.1,0.2-0.2,0.3-0.4,0.8c-0.7,1.4-1.7,2.8-2.7,3.9c-0.8,0.8-1.4,1.4-2.4,2.1
	c-0.2-0.4-0.4-0.6-0.8-0.9c1.9-1.3,3.2-2.6,4.2-4.3c0.5-0.8,0.8-1.5,0.9-2L304,1.2z M310.4,14.6c-0.4-0.8-0.6-1.1-0.9-1.7
	c-2.8,0.4-5.7,0.7-8.8,0.9c-1.2,0.1-1.3,0.1-1.8,0.2l-0.3-1.2c0.4,0,0.8,0,1.1,0c0.3,0,0.5,0,1,0c0.9-1.6,1.6-3,2.5-5.1
	c0.5-1.3,0.8-2.1,0.9-2.8l1.2,0.4c0,0,0,0.1,0,0.1c-0.1,0.1-0.1,0.3-0.3,0.7c-0.9,2.4-2.1,4.9-3.1,6.7c3.1-0.2,4.6-0.3,7.1-0.7
	c-0.8-1.3-1.3-1.9-2.4-3.3l0.9-0.5c1.6,2,2.9,3.9,3.9,5.8L310.4,14.6z M307.4,0.7c0.3,0.9,0.9,2,1.8,3.2c0.9,1.2,1.9,2.1,3.5,3.2
	c-0.4,0.3-0.5,0.6-0.8,1c-2.7-2-3.9-3.4-5.4-6.4c-0.1-0.3-0.2-0.3-0.2-0.4L307.4,0.7z"/>
<path class="st0" d="M322.8,3c0.7-0.9,1.2-1.7,1.7-2.9l1,0.4c-0.5,1.1-1,1.8-1.6,2.6h3c0.8,0,1.2,0,1.6-0.1V4C328.1,4,327.7,4,327,4
	h-3.2c0.6,1.1,1.1,1.7,1.9,2.6c1,1.1,2.1,1.9,3.5,2.6c-0.3,0.4-0.5,0.6-0.6,1c-0.8-0.5-1.3-0.9-1.9-1.4c0,0.3,0,0.5,0,0.8v3.7h0.9
	c0.7,0,1,0,1.3-0.1v1.1c-0.4,0-0.8-0.1-1.4-0.1h-11.5c-0.6,0-1.1,0-1.5,0.1v-1.1c0.3,0.1,0.6,0.1,1.2,0.1h1V9.5c0-0.4,0-0.5,0-0.8
	c-0.6,0.5-1,0.8-1.9,1.4c-0.2-0.4-0.4-0.7-0.6-0.9c2.5-1.3,4.1-2.9,5.1-5.2h-2.9c-0.7,0-1.2,0-1.6,0.1V2.9C315,3,315.4,3,316.2,3
	H322.8z M320.2,4c-0.8,1.8-1.6,2.9-3,4.2c0.4,0,0.6,0,1.1,0h6.7c0.3,0,0.6,0,1,0c-1.4-1.3-2.2-2.4-3.2-4.2H320.2z M318.4,0
	c0.7,0.8,1.1,1.4,1.7,2.4l-0.9,0.4c-0.6-1.1-0.9-1.6-1.7-2.5L318.4,0z M317.6,13.2h2V9h-2V13.2z M320.5,13.2h2V9h-2V13.2z
	 M323.5,13.2h2.1V9h-2.1V13.2z"/>
<path class="st0" d="M334.1,11.8c-0.6,1.3-1.1,2-2.1,3c-0.3-0.3-0.4-0.4-0.8-0.7c1-1,1.4-1.6,2-2.8L334.1,11.8z M333.6,10.8
	c-0.6,0-0.9,0-1.3,0c0-0.3,0-0.9,0-1.5V2.4c0-0.5,0-1-0.1-1.5c0.7,0,1,0,1.4,0h2c0.6,0,1.1,0,1.4,0c0,0.4,0,0.9,0,1.5v7
	c0,0.7,0,1.1,0,1.4c-0.4,0-0.8,0-1.4,0H333.6z M333.3,3.9h2.9v-2h-2.9V3.9z M333.3,6.9h2.9V4.7h-2.9V6.9z M333.3,9.9h2.9V7.7h-2.9
	V9.9z M336,11.3c0.7,1.1,1,1.6,1.8,2.5c-0.3,0.2-0.4,0.3-0.8,0.7c-0.7-0.9-1.1-1.5-1.8-2.7L336,11.3z M339.3,4.7
	c-0.5,0-1.1,0-1.6,0.1V3.7c0.5,0,1,0.1,1.6,0.1h3.2V2c0-0.8,0-1.1-0.1-1.5h1.2c-0.1,0.4-0.1,0.9-0.1,1.5l0,1.8h0.7
	c0.6,0,1,0,1.5-0.1v1.1c-0.4-0.1-0.8-0.1-1.4-0.1h-0.7l0.1,8.5c0,0.9-0.4,1.2-1.5,1.2c-0.5,0-1.1,0-1.7-0.1c0-0.4-0.1-0.6-0.3-1.1
	c0.7,0.1,1.4,0.2,1.9,0.2c0.5,0,0.6-0.1,0.6-0.5l0-5.3c0-0.6,0-1.5,0.1-2.2c-0.6,1.3-1.4,2.8-2.3,3.8c-0.8,1-1.5,1.7-2.6,2.5
	c-0.3-0.4-0.5-0.7-0.8-0.8c1.2-0.8,2.1-1.7,3.1-2.9c0.9-1.2,1.1-1.5,2-3.4H339.3z"/>
<path class="st0" d="M348.3,14.8c0.1-0.5,0.1-0.9,0.1-1.9v-10c0-0.8,0-1.4-0.1-2c0.6,0.1,1,0.1,1.9,0.1h9.5c0.8,0,1.3,0,1.9-0.1
	c-0.1,0.6-0.1,1.1-0.1,2v10c0,1,0,1.4,0.1,1.9h-1.1v-0.9h-11.1v0.9H348.3z M349.4,12.9h11.1v-11h-11.1V12.9z M356.6,3.7
	c0-0.6,0-0.9-0.1-1.3h1.1c-0.1,0.3-0.1,0.6-0.1,1.3v1h0.8c0.7,0,1.1,0,1.4-0.1v1c-0.3,0-0.8-0.1-1.4-0.1h-0.8v5.4
	c0,0.9-0.4,1.2-1.5,1.2c-0.6,0-1.1,0-1.8-0.1c0-0.5-0.1-0.6-0.2-1c0.8,0.1,1.4,0.2,2.1,0.2c0.4,0,0.5-0.1,0.5-0.4V5.5h-4.8
	c-0.7,0-1.1,0-1.5,0.1v-1c0.4,0.1,0.7,0.1,1.5,0.1h4.8V3.7z M353.9,9.9c-0.7-1.4-1.1-2-2.1-3.1l0.8-0.5c1,1.2,1.4,1.7,2.2,3.1
	L353.9,9.9z"/>
<path class="st0" d="M364.7,4.2c1,0.6,1.6,1,2.7,2l-0.6,0.9c-1-0.9-1.6-1.5-2.7-2.1L364.7,4.2z M367.6,9.5c-0.7,1.7-1.2,2.7-2.1,4.3
	c-0.1,0.2-0.1,0.3-0.3,0.6l-0.9-0.8c0.3-0.3,0.6-0.7,1-1.4c0.7-1.2,1-1.9,1.5-3.3L367.6,9.5z M365.7,0.5c1.1,0.7,1.7,1.2,2.6,2.1
	l-0.7,0.8c-0.8-0.9-1.5-1.5-2.6-2.2L365.7,0.5z M370.3,3.9c-0.6,0-1.1,0-1.6,0.1V2.8c0.4,0.1,0.9,0.1,1.6,0.1h2.2V1.8
	c0-0.8,0-1.2-0.1-1.6h1.2c-0.1,0.5-0.1,0.9-0.1,1.6v1.1h3c0.6,0,1,0,1.4-0.1V4c-0.4-0.1-0.8-0.1-1.4-0.1h-3.1v2.9h3.6
	c0.6,0,1,0,1.5-0.1v1.1c-0.4-0.1-0.9-0.1-1.5-0.1h-4.1c-0.9,2.4-1.3,3.2-2.2,5c2.8-0.3,3.9-0.4,5.5-0.7c-0.7-1.1-1-1.6-2-2.7
	l0.9-0.5c1.4,1.7,2.2,2.9,3.4,5l-1,0.6c-0.4-0.8-0.5-1.1-0.8-1.6c-1.3,0.2-1.3,0.2-2.9,0.5c-1.2,0.2-1.2,0.2-4.7,0.6
	c-0.7,0.1-0.9,0.1-1.2,0.2l-0.3-1.2c0.2,0,0.4,0,0.5,0c0.3,0,0.7,0,1.3-0.1c1.1-1.9,1.7-3.3,2.3-5.1h-2.4c-0.6,0-1.1,0-1.6,0.1V6.7
	c0.4,0.1,0.9,0.1,1.6,0.1h2.9V3.9H370.3z"/>
<path class="st0" d="M388.8,0.4c0,0.3-0.1,0.9-0.1,1.4c0,0.9,0.2,2.6,0.4,3.5c0.3,1.3,1.1,3.2,2.1,4.5c0.6,0.9,1.5,1.8,2.4,2.5
	c0.5,0.4,0.9,0.7,1.9,1.2c-0.4,0.4-0.6,0.5-0.8,1c-2-1.3-3.1-2.4-4.2-4.1c-1-1.5-1.6-2.9-2.1-5.1c-0.3,1.5-0.6,2.4-1.1,3.6
	c-0.6,1.2-1.3,2.3-2.3,3.3c-0.9,0.9-1.6,1.5-2.9,2.3c-0.3-0.4-0.5-0.6-0.9-0.9c1.6-0.9,2.3-1.4,3.3-2.4c2.2-2.4,3.3-5.5,3.3-9.4
	c0-0.7,0-1-0.1-1.4C387.6,0.4,388.8,0.4,388.8,0.4z"/>
<path class="st0" d="M399.8,12.8c0,0.8,0,1.3,0.1,1.9h-1.2c0.1-0.6,0.1-1.1,0.1-1.9V7.5c0-0.7,0-1.2,0.1-1.9c-0.6,1.1-1,1.6-1.7,2.5
	c-0.3-0.5-0.4-0.7-0.7-0.9c1.3-1.4,2.2-2.9,2.9-4.5c0.4-0.9,0.7-1.9,0.8-2.6l1.1,0.4c-0.1,0.2-0.2,0.4-0.4,0.9
	c-0.5,1.3-0.7,1.8-1.2,2.8V12.8z M408.7,7.6c0.8,0,1.2,0,1.7-0.1v1.1c-0.4-0.1-0.9-0.1-1.7-0.1H407v4.5h2.7c0.6,0,1.1,0,1.6-0.1v1.1
	c-0.4-0.1-0.8-0.1-1.7-0.1H403c-0.8,0-1.2,0-1.7,0.1V13c0.5,0.1,1.1,0.1,1.7,0.1h3V8.5h-2.6c-0.7,1.4-1.2,2.1-2.4,3.6
	c-0.3-0.3-0.4-0.4-0.9-0.7c1-1.1,1.6-1.9,2.4-3.3c0.6-1.2,1.1-2.3,1.5-3.7h-1.6c-0.9,0-1.3,0-1.7,0.1V3.4c0.5,0.1,0.9,0.1,1.7,0.1
	h1.8c0.4-1.6,0.5-2.5,0.6-3.3l1.2,0.2c-0.1,0.4-0.2,0.6-0.2,1c-0.2,1.1-0.3,1.5-0.5,2.1h4.2c0.7,0,1.3,0,1.7-0.1v1.1
	c-0.4,0-0.9-0.1-1.7-0.1h-4.5c-0.4,1.2-0.6,1.9-1.2,3.1C403.9,7.6,408.7,7.6,408.7,7.6z"/>
<path class="st0" d="M415.6,10.4c-0.2,2.1-0.5,3.2-1.1,4.3c-0.3-0.3-0.4-0.5-0.8-0.7c0.4-0.7,0.6-1.2,0.8-2c0.3-1.2,0.4-3.3,0.4-5.9
	c0-1.1,0-1.7-0.1-2.3c0.4,0.1,0.7,0.1,1.4,0.1h1.2c0.7,0,1,0,1.3-0.1c0,0.4-0.1,0.8-0.1,1.6v7.8c0,1-0.3,1.3-1.3,1.3
	c-0.4,0-0.8,0-1.1-0.1c0-0.4-0.1-0.6-0.2-1c0.6,0.1,0.9,0.2,1.3,0.2c0.4,0,0.5-0.1,0.5-0.5v-2.7C417.7,10.4,415.6,10.4,415.6,10.4z
	 M418.2,1.3c0-0.4,0-0.7-0.1-1h1.1c0,0.3-0.1,0.6-0.1,1v0.2h3.8V1.3c0-0.4,0-0.7-0.1-1h1.1c0,0.3-0.1,0.6-0.1,1v0.2h2.7
	c0.7,0,1.1,0,1.6-0.1v1.1c-0.4-0.1-1-0.1-1.6-0.1h-2.7c0,0.3,0,0.4,0.1,0.6h-1.1c0-0.2,0-0.3,0.1-0.6h-3.8c0,0.5,0,0.7,0.1,1h-1.1
	c0-0.3,0-0.6,0.1-1h-2.5c-0.6,0-1.2,0-1.6,0.1V1.4c0.5,0.1,0.9,0.1,1.6,0.1h2.5V1.3z M417.7,9.6V7.5h-2c0,0.9,0,1.4-0.1,2.1H417.7z
	 M417.7,6.7v-2h-2V6c0,0.2,0,0.3,0,0.7H417.7z M419.5,5.1c0.4,0.1,0.6,0.1,1.5,0.1c-0.3-0.7-0.6-1.1-0.9-1.6l0.8-0.3
	c0.4,0.6,0.7,1.2,1,1.9h0.6c0.2-0.7,0.3-1.4,0.3-2l1.1,0c-0.1,0.3-0.1,0.3-0.3,1.2c0,0.2-0.1,0.4-0.2,0.8h1.4c0.5-0.6,0.7-1.1,1-1.9
	l0.9,0.3c-0.4,0.7-0.6,1.1-0.9,1.5h0.5c0.8,0,1.2,0,1.6-0.1V6c-0.4,0-0.8,0-1.6,0h-1.5c0.2,0.5,0.4,0.9,0.7,1.3h1.2
	c0.8,0,1.2,0,1.6-0.1v0.9c-0.4,0-0.8,0-1.6,0h-0.7c0.7,0.9,1.5,1.5,2.5,2c-0.2,0.2-0.4,0.4-0.6,0.8c-1.2-0.8-2.1-1.7-2.9-2.8h-2.9
	c-0.8,1.3-1.5,2-2.8,2.9c-0.2-0.3-0.4-0.5-0.7-0.7c1.2-0.7,1.8-1.3,2.4-2.2h-0.5c-0.8,0-1.2,0-1.6,0.1v-1c0.4,0.1,0.7,0.1,1.6,0.1h1
	c0.3-0.5,0.4-0.8,0.6-1.3H421c-0.8,0-1.1,0-1.6,0.1C419.5,6.1,419.5,5.1,419.5,5.1z M422.6,12.3c-0.8,0.5-1.4,0.8-2.3,1.3
	c-0.4,0.2-0.5,0.2-0.7,0.3l-0.5-0.9c1.1-0.3,2.2-0.8,3.3-1.5L422.6,12.3z M421.3,9.7c0.5,0.5,0.7,0.7,1.2,1.3l-0.6,0.5
	c-0.4-0.5-0.6-0.9-1.2-1.3L421.3,9.7z M423.8,13.2c0,1.1-0.2,1.3-1.4,1.3c-0.3,0-0.6,0-1.2-0.1c0-0.4-0.1-0.6-0.2-1
	c0.6,0.1,1,0.2,1.4,0.2c0.4,0,0.4-0.1,0.4-0.5V9.8c0-0.4,0-0.7-0.1-1.1h1.1c-0.1,0.3-0.1,0.6-0.1,1V13.2z M423.1,6
	c-0.2,0.4-0.3,0.8-0.6,1.3h2c-0.3-0.5-0.4-0.9-0.6-1.3H423.1z M424.8,11.6c1.2,0.9,1.7,1.2,2.9,1.7c-0.2,0.2-0.4,0.5-0.6,0.8
	c-1.2-0.6-1.6-0.8-2.9-1.8L424.8,11.6z M426.2,10.1c-0.4,0.5-0.8,1-1.2,1.4l-0.6-0.5c0.5-0.4,0.7-0.7,1.2-1.4L426.2,10.1z"/>
<path class="st0" d="M431.1,2.8c0-0.8,0-1.3-0.1-2c0.5,0.1,1,0.1,1.9,0.1h9.6c0.8,0,1.3,0,1.9-0.1c-0.1,0.6-0.1,1.1-0.1,2v9.7
	c0,1.2,0,1.8,0.1,2.2h-1.1v-1h-11.1v1H431c0.1-0.4,0.1-1,0.1-2.2V2.8z M432.1,12.9h11.1v-11h-11.1V12.9z M434.9,4.2
	c-0.7,0-1.1,0-1.5,0.1v-1c0.4,0.1,0.8,0.1,1.5,0.1h5.7c0.7,0,1.2,0,1.6-0.1v1c-0.4-0.1-0.8-0.1-1.6-0.1h-2.5v2.5h2
	c0.7,0,1,0,1.4-0.1v1c-0.4-0.1-0.8-0.1-1.4-0.1h-2v2.9h2.7c0.7,0,1.1,0,1.6-0.1v1.1c-0.5-0.1-0.9-0.1-1.6-0.1h-6.1
	c-0.7,0-1.1,0-1.6,0.1v-1.1c0.4,0.1,0.9,0.1,1.6,0.1h2.4V7.6h-1.7c-0.7,0-1.1,0-1.5,0.1v-1c0.4,0.1,0.7,0.1,1.5,0.1h1.7V4.2H434.9z
	 M440,7.8c0.7,0.7,0.9,1,1.5,1.9l-0.8,0.5c-0.6-1-0.8-1.3-1.4-2L440,7.8z"/>
<path class="st0" d="M447.7,2c0-0.6,0-1-0.1-1.3c0.3,0,0.7,0.1,1.1,0.1h1.8c0.4,0,0.7,0,0.9-0.1l0.5,0.6c-0.1,0.2-0.2,0.3-0.2,0.5
	c-0.4,1.3-0.9,2.5-1.5,3.7c0.7,0.8,0.9,1.2,1.2,1.8c0.2,0.5,0.3,1.1,0.3,1.7c0,0.8-0.2,1.4-0.6,1.7c-0.3,0.2-0.8,0.3-1.2,0.3
	c-0.1,0-0.4,0-0.6,0c0-0.1,0-0.1,0-0.1c0-0.4,0-0.5-0.1-0.8c0.4,0.1,0.6,0.1,0.8,0.1c0.6,0,0.8-0.4,0.8-1.2c0-0.8-0.2-1.5-0.7-2.2
	c-0.2-0.3-0.4-0.6-0.9-1.1c0.6-1.2,1.1-2.4,1.6-4h-2.1V13c0,0.8,0,1.3,0.1,1.7h-1.1c0.1-0.4,0.1-1,0.1-1.7V2z M461.5,1.8
	c0,0.1,0,0.1-0.1,0.2c0,0,0,0-0.1,0.1c-0.1,0.1-0.1,0.1-0.3,0.5c-0.5,0.8-1,1.4-1.9,2.3c1,1.1,1.7,1.6,3,2.3
	c-0.3,0.3-0.4,0.5-0.6,0.9c-2.3-1.5-3.7-3.1-4.8-5.4c-0.4,1.1-0.9,1.9-1.7,3c-0.8,1-1.6,1.7-2.7,2.6c-0.2-0.3-0.3-0.5-0.6-0.8
	c0.8-0.6,1.3-0.9,1.9-1.6c-0.4-0.4-0.7-0.6-1.2-1.1l0.6-0.5c0.4,0.3,0.6,0.4,1.2,1c0.3-0.4,0.5-0.5,0.7-0.9c-0.5-0.4-0.8-0.7-1.3-1
	l0.5-0.6c0.5,0.3,0.8,0.6,1.2,0.9c0.4-0.6,0.5-0.9,0.8-1.7h-2.1c-0.7,1.2-1.3,2-2.4,3c-0.2-0.3-0.4-0.4-0.6-0.6
	c0.8-0.8,1.3-1.3,1.8-2c0.6-0.9,1-1.6,1.1-2.2l1,0.2c-0.1,0.2-0.1,0.2-0.2,0.4c0,0.1-0.1,0.2-0.2,0.4h1.2c0.8,0,1.1,0,1.4,0
	c0.1,0.7,0.7,2,1.5,3c0.6-0.6,1.1-1.1,1.7-2.1h-1.8c-0.2,0-0.4,0-0.7,0.1v-1c0.4,0,0.6,0.1,1,0.1h1.1c0.7,0,1,0,1.2-0.1L461.5,1.8z
	 M454.6,10.8c-0.9,1.6-1.5,2.3-2.7,3.4c-0.2-0.3-0.4-0.5-0.7-0.7c1.4-1,1.9-1.7,2.6-3.1L454.6,10.8z M453.8,9.7
	c-0.6,0-1.2,0-1.5,0.1v-1c0.3,0,0.9,0.1,1.5,0.1h6c0.7,0,1.2,0,1.5-0.1v1.1c-0.4-0.1-1-0.1-1.5-0.1h-2.7v3.8c0,0.9-0.3,1.1-1.3,1.1
	c-0.5,0-1.2,0-1.7-0.1c0-0.4-0.1-0.7-0.2-1c0.8,0.1,1.2,0.2,1.7,0.2c0.4,0,0.5-0.1,0.5-0.4V9.7H453.8z M454.3,6.4
	c0.3,0,0.6,0.1,1.1,0.1h2.8c0.6,0,0.8,0,1.1-0.1v1c-0.3,0-0.6-0.1-1.1-0.1h-2.8c-0.4,0-0.8,0-1.1,0.1L454.3,6.4L454.3,6.4z
	 M459.4,10.3c0.7,1.4,1.3,2,2.6,3c-0.3,0.3-0.4,0.4-0.7,0.8c-1.3-1.1-1.8-1.7-2.7-3.3L459.4,10.3z"/>
<path class="st0" d="M475.6,3.9c-0.4,1.3-0.6,1.8-1,2.6c-0.6,1.3-1.3,2.3-2.4,3.4c0.9,0.8,1.8,1.5,2.9,2.1c1.2,0.7,2.1,1,3.7,1.5
	c-0.3,0.3-0.5,0.6-0.7,1.1c-2.8-0.9-4.8-2.1-6.6-3.8c-1.9,1.8-4.1,3-6.7,3.8c-0.2-0.4-0.4-0.7-0.7-1c2.6-0.7,4.8-1.9,6.6-3.6
	c-0.8-0.8-1.4-1.6-1.9-2.6c-0.7-1.1-1-1.8-1.5-3.4h-1.2c-0.8,0-1.3,0-1.8,0.1V2.9c0.5,0.1,1,0.1,1.8,0.1h4.6V1.7c0-0.5,0-1-0.1-1.4
	h1.3c-0.1,0.4-0.1,0.8-0.1,1.4V3h5c0.8,0,1.3,0,1.8-0.1V4c-0.4-0.1-0.9-0.1-1.8-0.1H475.6z M468.5,3.9c0.4,1.4,0.7,2,1.3,3.1
	c0.5,0.9,1,1.5,1.7,2.3c1.4-1.5,2.3-3.1,2.9-5.3C474.4,3.9,468.5,3.9,468.5,3.9z"/>
<path class="st0" d="M482.5,7.7c0-0.9,0-1.1,0-2c-0.5,0.9-1.1,1.7-2,2.7c-0.2-0.3-0.5-0.7-0.7-0.9c1.7-1.6,2.8-3.3,3.6-5.4
	c0.3-0.8,0.5-1.3,0.5-1.9l1.2,0.3c-0.1,0.2-0.1,0.2-0.3,0.9c-0.1,0.4-0.7,1.6-1.3,3v8.4c0,0.6,0,1.3,0.1,1.9h-1.2
	c0.1-0.6,0.1-1.2,0.1-2L482.5,7.7L482.5,7.7z M487.9,12.5c0,0.6,0.2,0.6,2.1,0.6c1.8,0,2.4-0.1,2.7-0.4c0.3-0.4,0.4-1.2,0.5-2.9
	c0.4,0.3,0.7,0.4,1.1,0.5c-0.2,1.8-0.4,2.7-0.8,3.1c-0.4,0.5-1.2,0.7-3.6,0.7c-2.7,0-3.1-0.2-3.1-1.4V2.1c0-0.7,0-1.3-0.1-1.7h1.2
	c-0.1,0.4-0.1,1-0.1,1.7v4.5c1.1-0.6,1.9-1.2,2.8-1.8c1.1-0.9,1.7-1.5,2.3-2.2l0.9,0.8c-0.2,0.2-0.2,0.2-1,0.9
	c-1.4,1.3-2.9,2.3-5,3.5V12.5z"/>
<path class="st0" d="M502.7,1.3c0-0.5,0-0.8-0.1-1.2h1.2c-0.1,0.4-0.1,0.7-0.1,1.2v0.4h5.2c0.7,0,1.2,0,1.6-0.1v1.1
	c-0.5-0.1-1-0.1-1.6-0.1h-6.7c-0.4,0.8-0.9,1.4-1.4,2c2.2,0,3.7-0.1,6-0.3c-0.6-0.4-0.9-0.6-1.7-1l0.8-0.5c1.7,1,2.7,1.6,4.2,2.8
	l-0.7,0.7c-0.7-0.6-0.9-0.8-1.5-1.3c-3,0.3-6.3,0.5-10.1,0.5c-0.2,0-0.5,0-0.7,0l-0.2-1.1c0.6,0,0.9,0.1,1.8,0.1c0.3,0,0.5,0,1,0
	c0.5-0.6,1-1.3,1.4-2h-3.1c-0.6,0-1.1,0-1.6,0.1V1.6c0.4,0.1,0.9,0.1,1.6,0.1h4.7L502.7,1.3L502.7,1.3z M499.5,11.7v1.3
	c0,0.8,0,1.3,0.1,1.8h-1.2c0.1-0.6,0.1-1.1,0.1-1.8v-5c0-0.6,0-1.1-0.1-1.5c0.4,0,1,0.1,1.9,0.1h6.2c0.9,0,1.3,0,1.7-0.1
	c0,0.4-0.1,0.9-0.1,1.7v5.2c0,1-0.4,1.3-1.6,1.3c-0.1,0-0.8,0-1.9-0.1c0-0.4-0.1-0.6-0.2-1c0.8,0.1,1.4,0.1,2,0.1
	c0.6,0,0.7-0.1,0.7-0.5v-1.5H499.5z M507.2,7.3h-7.7v1.3h7.7V7.3z M499.5,9.4v1.4h7.7V9.4H499.5z"/>
<path class="st0" d="M520.6,9.7c0.7,1.1,1.2,1.6,2.2,2.3c1.2,0.8,2.5,1.2,4.4,1.7c-0.3,0.4-0.4,0.6-0.6,1c-3.5-0.9-5.6-2.4-6.9-4.7
	c-0.5,1.3-1.3,2.3-2.4,3.1c-1.1,0.7-2.1,1.2-3.9,1.5c-0.2-0.4-0.3-0.8-0.6-1c1.9-0.3,3-0.7,4.1-1.5c0.9-0.6,1.5-1.5,1.9-2.5h-4.2
	c-0.7,0-1.2,0-1.8,0.1V8.7c0.4,0.1,0.9,0.1,1.7,0.1h0.4V6.6c0-0.7,0-1.1-0.1-1.5c0.4,0,0.8,0.1,1.6,0.1h3c0-0.7,0-1-0.1-1.4h1.2
	c-0.1,0.5-0.1,0.6-0.1,1.4h3.2c0.8,0,1.1,0,1.6-0.1c-0.1,0.4-0.1,0.8-0.1,1.5v2.2h0.4c0.9,0,1.3,0,1.7-0.1v1.1
	c-0.6-0.1-1.1-0.1-1.8-0.1C525.5,9.7,520.6,9.7,520.6,9.7z M517,1.5c0-0.4,0-0.8-0.1-1.1h1.2c-0.1,0.4-0.1,0.7-0.1,1.1v0.3h3.8V1.5
	c0-0.4,0-0.7-0.1-1.1h1.2c-0.1,0.4-0.1,0.7-0.1,1.1v0.3h2.5c0.8,0,1.3,0,1.8-0.1v1.1c-0.5-0.1-1-0.1-1.8-0.1h-2.5v0.5
	c0,0.4,0,0.7,0.1,1.1h-1.1c0-0.3,0.1-0.6,0.1-1V2.8H518v0.5c0,0.4,0,0.7,0.1,1.1H517c0-0.4,0.1-0.7,0.1-1V2.8h-2.3
	c-0.8,0-1.3,0-1.8,0.1V1.8c0.4,0.1,1,0.1,1.8,0.1h2.3V1.5L517,1.5z M519.1,8.8c0.1-0.7,0.2-1.5,0.3-2.7H516v2.7H519.1z M524.1,8.8
	V6.1h-3.7c-0.1,1.2-0.1,1.9-0.3,2.7C520.1,8.8,524.1,8.8,524.1,8.8z"/>
<path class="st0" d="M532.6,11.8c-0.6,1.3-1.1,2-2.1,3c-0.3-0.3-0.4-0.4-0.8-0.7c1-1,1.4-1.6,2-2.8L532.6,11.8z M532.1,10.8
	c-0.6,0-0.9,0-1.3,0c0-0.3,0-0.9,0-1.5V2.4c0-0.5,0-1-0.1-1.5c0.7,0,1,0,1.4,0h2c0.6,0,1.1,0,1.4,0c0,0.4,0,0.9,0,1.5v7
	c0,0.7,0,1.1,0,1.4c-0.4,0-0.8,0-1.4,0H532.1z M531.8,3.9h2.9v-2h-2.9V3.9z M531.8,6.9h2.9V4.7h-2.9V6.9z M531.8,9.9h2.9V7.7h-2.9
	V9.9z M534.5,11.3c0.7,1.1,1,1.6,1.8,2.5c-0.3,0.2-0.4,0.3-0.8,0.7c-0.7-0.9-1.1-1.5-1.8-2.7L534.5,11.3z M537.8,4.7
	c-0.5,0-1.1,0-1.6,0.1V3.7c0.5,0,1,0.1,1.6,0.1h3.2V2c0-0.8,0-1.1-0.1-1.5h1.2C542,1,542,1.5,542,2l0,1.8h0.7c0.6,0,1,0,1.5-0.1v1.1
	c-0.4-0.1-0.8-0.1-1.4-0.1H542l0.1,8.5c0,0.9-0.4,1.2-1.5,1.2c-0.5,0-1.1,0-1.7-0.1c0-0.4-0.1-0.6-0.3-1.1c0.7,0.1,1.4,0.2,1.9,0.2
	c0.5,0,0.6-0.1,0.6-0.5l0-5.3c0-0.6,0-1.5,0.1-2.2c-0.6,1.3-1.4,2.8-2.3,3.8c-0.8,1-1.5,1.7-2.6,2.5c-0.3-0.4-0.5-0.7-0.8-0.8
	c1.2-0.8,2.1-1.7,3.1-2.9c0.9-1.2,1.1-1.5,2-3.4H537.8z"/>
<path class="st0" d="M546.8,14.8c0.1-0.5,0.1-0.9,0.1-1.9v-10c0-0.8,0-1.4-0.1-2c0.6,0.1,1,0.1,1.9,0.1h9.5c0.8,0,1.3,0,1.9-0.1
	C560,1.5,560,2,560,2.9v10c0,1,0,1.4,0.1,1.9H559v-0.9h-11.1v0.9H546.8z M547.9,12.9H559v-11h-11.1V12.9z M555.1,3.7
	c0-0.6,0-0.9-0.1-1.3h1.1c-0.1,0.3-0.1,0.6-0.1,1.3v1h0.8c0.7,0,1.1,0,1.4-0.1v1c-0.3,0-0.8-0.1-1.4-0.1h-0.8v5.4
	c0,0.9-0.4,1.2-1.5,1.2c-0.6,0-1.1,0-1.8-0.1c0-0.5-0.1-0.6-0.2-1c0.8,0.1,1.4,0.2,2.1,0.2c0.4,0,0.5-0.1,0.5-0.4V5.5h-4.8
	c-0.7,0-1.1,0-1.5,0.1v-1c0.4,0.1,0.7,0.1,1.5,0.1h4.8V3.7z M552.4,9.9c-0.7-1.4-1.1-2-2.1-3.1l0.8-0.5c1,1.2,1.4,1.7,2.2,3.1
	L552.4,9.9z"/>
<path class="st1" d="M297.5,47.6c3-4.3,4.5-7,7.3-13.8c2.2-5.4,3-7.8,3.5-11.3c1.1,0.3,2.1,0.5,2.7,0.7c2,0.5,3,0.9,3,1.3
	s-0.3,0.5-2.3,1c-3.3,7.7-4.1,9.4-6.3,13c2.7,0.3,3.7,0.6,3.7,1.1c0,0.3-0.3,0.5-1.4,0.8V54c0,9.4,0,9.4,0.1,12.9c0,0,0,0,0,0
	c0,0.1,0,0.1,0,0.1c0,0.1,0,0.1,0,0.2c0,0.2-0.2,0.4-0.5,0.5c-0.2,0-1.6,0.2-2.2,0.2c-0.8,0-1-0.1-1-0.5c0-0.1,0-0.1,0-0.3
	c0.2-7.2,0.3-10.3,0.3-13V40.1c-2.2,3.3-3.7,5.2-6.2,8.1L297.5,47.6z M318.5,48.7c-2.8,5.9-5.9,10.2-9.9,13.8L308,62
	c3.8-5.3,5.4-8,7.4-12.9c1.9-4.5,3-8.2,3.9-12.7h-5.8c-1,0-1.8,0-3.8,0.3l-0.3-1.8c1.6,0.3,2.9,0.3,4.1,0.3h6.1
	c0.8-4.5,1.3-8.5,1.4-12.4c5.4,0.8,6.1,1,6.1,1.6c0,0.5-0.3,0.6-2.2,1c-0.2,0.8-0.3,1.4-0.3,1.9c-0.9,5.6-1,5.9-1.4,8h13.1
	c1.3-1.5,1.7-2,3-3.5c2,1.6,2.6,2.1,4.5,3.8c0.3,0.3,0.4,0.5,0.4,0.6c0,0.3-0.2,0.4-0.7,0.4h-20.5c-1,3.9-2.2,7.4-3.9,11.2h14.8
	c1.3-1.5,1.6-1.9,2.8-3.4c2,1.6,2.6,2.2,4.4,3.8c0.1,0.2,0.3,0.3,0.3,0.4c0,0.2-0.2,0.4-0.5,0.4h-11.2v15.4h6.5
	c1.3-1.6,1.6-2.1,2.9-3.5c2.1,1.6,2.8,2.1,4.9,3.8c0.2,0.2,0.4,0.3,0.4,0.5c0,0.1-0.2,0.3-0.5,0.3h-27.8c-1.3,0-2.2,0-4.2,0.3
	l-0.3-1.9c1.8,0.3,3.5,0.5,4.5,0.5h10.4V48.7H318.5z"/>
<path class="st1" d="M358.1,52.6c-0.8,6.6-2.1,9.9-6,15l-0.5-0.5c1-1.9,1.3-2.7,2-5.1c1.1-4,1.5-5.8,1.8-9.7c0.4-4.7,0.5-5.6,0.5-16
	c0-2,0-2.7-0.1-4.3c1.6,0.9,2,1.2,3.5,2.3h4.4c0.6-0.8,0.9-1,1.5-1.8c0.9,0.6,1.8,1.2,2.6,1.8c0.3,0.3,0.5,0.4,0.5,0.6
	c0,0.3-0.4,0.6-1.4,1.4v27.8c0,1.5-0.2,2.1-0.9,2.6c-0.8,0.6-1.5,1-3.2,1.2c-0.2-1.3-0.5-1.8-1.3-2.2c-0.6-0.4-1-0.5-3.8-0.9l0-0.7
	c2.7,0.1,2.7,0.1,5.4,0.4c0.1,0,0.2,0,0.3,0c0.4,0,0.5-0.2,0.5-0.7V52.6H358.1z M366.8,26v-1.2c0-1.1,0-1.5-0.1-2.8
	c4.6,0.5,5.4,0.8,5.4,1.3c0,0.4-0.6,0.7-2.3,1.1c0,1.2,0,1.2,0,2.5h10.1c0-2.7,0-3-0.3-4.8c2.6,0.3,4.6,0.5,5.1,0.8
	c0.1,0.1,0.3,0.3,0.3,0.4c0,0.4-0.5,0.7-2.1,1.2v2.5h7.7c1.4-1.6,1.8-2.1,3.2-3.6c2,1.6,2.7,2.1,4.7,4c0.1,0.2,0.2,0.3,0.2,0.4
	c0,0.3-0.3,0.4-0.6,0.4h-15.2c0,1,0,1.5,0.1,3c-0.1,0.3-0.1,0.4-0.5,0.5c-0.1,0-1.6,0.1-2.1,0.1s-0.6-0.1-0.6-0.6c0-1.4,0-1.6,0.1-3
	h-10c0,1.2,0,1.5,0,3c0,0.5-0.4,0.6-2.5,0.6c-0.4,0-0.6-0.1-0.6-0.5c0,0,0-0.1,0-0.1c0.1-1.3,0.1-1.3,0.1-3h-9.2
	c-1.6,0-3.3,0.2-4.5,0.4l-0.4-2.1c1.5,0.4,2.9,0.5,5.1,0.5h9V26z M363.7,43.9h-5.2c-0.1,0.8-0.1,0.8-0.1,2.5c0,1.8,0,3-0.3,5.1h5.5
	V43.9z M363.7,35.6h-5.1c-0.1,2.1-0.1,2.1-0.1,7.2h5.2V35.6z M377.1,46.2c-1.5,2.2-2.8,3.8-4.5,5.6c4.1,1.7,5.2,2.4,5.2,3.5
	c0,1-0.7,2.2-1.3,2.2c-0.3,0-0.5-0.2-0.8-0.7c-1-1.6-2.5-3.5-3.5-4.6c-1.5,1.4-2.4,2.1-4.8,3.9l-0.4-0.8c3.3-3,5.4-5.5,7.6-9.1h-2.5
	c-1.6,0-3.4,0.1-4.5,0.3l-0.3-1.8c1.1,0.2,1.1,0.2,4.8,0.4h3.2c0.9-1.6,1.4-3,2.1-4.7h-4.9c-1.9,0-2.9,0-3.9,0.3l-0.3-1.8
	c1.1,0.3,2.5,0.4,4.1,0.4h5.3c0.9-2.6,1.3-4.2,1.8-7c2.1,0.3,4.1,0.8,4.5,1c0.2,0,0.3,0.2,0.3,0.3c0,0.5-0.4,0.6-2,1
	c-0.8,2.3-1,3-1.7,4.7h3.9c1.9-2.4,3.3-4.8,4.3-7.3c3.4,1.3,4.1,1.7,4.1,2c0,0.4-0.7,0.6-2,0.6c-3.7,3.6-3.7,3.6-5.3,4.7h4.1
	c1.2-1.3,1.5-1.6,2.7-2.6c1.6,1.3,2.1,1.6,3.7,3c0.1,0.1,0.2,0.4,0.2,0.4c0,0.3-0.3,0.4-0.6,0.4h-11.9c1,2.3,1.5,3.1,2.6,4.7h5.1
	c1.2-1.4,1.6-1.8,2.8-3.1c1.6,1.5,2.1,1.9,3.7,3.4c0.1,0.2,0.3,0.4,0.3,0.5c0,0.2-0.3,0.4-0.5,0.4h-10.3c1.2,1.2,2.3,2.1,3.9,3.2
	c2.8,1.9,4.4,2.5,8,3.4v0.5c-2,0.5-2.7,1-3.4,2.8c-4.8-3.1-7.7-5.8-10.3-9.8C385.7,46.2,377.1,46.2,377.1,46.2z M382.6,57
	c0.5,0.2,0.6,0.3,1,0.4c1.7-1.8,3.3-3.9,4.5-6c0.8,0.6,1.4,1,1.7,1.3c0.7,0.4,1.1,0.8,1.3,0.9c0.4,0.3,0.7,0.5,0.7,0.7
	c0,0.3-0.4,0.4-0.6,0.4c-0.2,0-0.9-0.1-1.4-0.3c-2.8,1.8-3.6,2.2-5.7,3.1c0.6,0.3,1.3,0.5,1.5,0.6c4.6,1.7,7.3,3.2,8.1,4.5
	c0.3,0.5,0.5,1.6,0.5,2.6c0,0.6-0.5,1.3-1,1.3c-0.3,0-0.4-0.1-1-0.9c-0.2-0.2-0.5-0.5-0.9-0.9c-0.4-0.3-1-0.8-1.7-1.5
	c-2.5-2.4-3-2.8-6.9-5.4v0.8c0,2.8,0,2.8,0,6v0.1c0,2.2-0.8,2.7-4.5,3.3c-0.1-1.3-0.5-1.8-1.7-2.3c-0.5-0.2-0.7-0.3-3.5-0.8v-0.6
	c1.5,0,1.5,0,3.4,0.1c1.4,0.1,1.4,0.1,2.7,0.1h0.1c0.4,0,0.4-0.2,0.4-0.8v-6c-0.9,0.5-1.2,0.8-4.1,2.8c-1.6,1.1-2.7,1.9-4.7,3.1
	c-0.1,1.6-0.3,2-0.6,2c-0.5,0-0.8-0.6-1.9-4.5c3.3-0.8,7.4-2.3,11.3-4.1v-4.5c0-2.3,0-3.1-0.2-5.1c4.3,0.5,4.9,0.8,4.9,1.3
	c0,0.4-0.5,0.7-1.8,1V57z M371.2,32.1c3.5,1.7,4.9,2.9,4.9,4.2c0,1.1-0.9,2.4-1.7,2.4c-0.5,0-0.6-0.2-1-1.5
	c-0.5-1.5-1.1-2.6-2.5-4.7L371.2,32.1z M385,45c-0.9-1.8-1.3-2.6-1.9-4.7h-2.8c-0.8,1.8-1.4,3.1-2.4,4.7H385z"/>
<path class="st1" d="M429.9,52.7c2,3.1,3.6,4.7,6.7,6.3c4.2,2.4,8.1,3.3,15.5,3.9v0.6c-2.1,0.7-2.9,1.6-3.5,3.7
	c-4.7-1-7.3-2-10.6-4.1c-4.1-2.5-6.8-5.5-9.2-10.2c-1,3-2.5,5.4-4.8,7.6c-4.2,3.9-9.9,6.2-18,7.2l-0.3-0.7c5.6-1.3,10-3.3,13.5-6.2
	c2.9-2.5,4.6-4.9,5.8-8.1h-12.8c-1.6,0-2.5,0.1-4.9,0.3l-0.5-2c1.7,0.3,4.1,0.5,5.3,0.5h13.2c0.4-1.7,0.5-2.6,0.5-3.8
	c0-0.4,0-0.9-0.1-1.5c4.8,0.7,5.6,0.9,5.6,1.5c0,0.4-0.6,0.8-1.7,0.9c-0.2,1.5-0.3,2-0.5,3h14.1c1.1-1.4,1.5-1.8,2.7-3.1
	c2,1.4,2.5,1.9,4.4,3.5c0.2,0.3,0.4,0.4,0.4,0.5c0,0.1-0.1,0.3-0.3,0.3h-0.4C450.2,52.7,429.9,52.7,429.9,52.7z M431.4,29.8
	c1.4-1.9,3.5-5.6,4.2-7.7c4.4,1.4,5.4,1.8,5.4,2.2c0,0.5-0.6,0.7-2.5,0.8c-1.6,1.6-3.9,3.5-5.6,4.7h9.8c1.2-1.3,1.5-1.8,2.8-3
	c1.9,1.4,2.4,1.9,4.3,3.5c0.1,0.1,0.2,0.4,0.2,0.4c0,0.2-0.3,0.3-0.6,0.3h-19.5v6.2h9.9c1.1-1.4,1.5-1.8,2.6-3.1
	c1.8,1.5,2.4,1.9,4.2,3.4c0.1,0.1,0.3,0.4,0.3,0.4c0,0.3-0.3,0.4-0.7,0.4h-16.3v6.1h14.4c0.9-1,1.8-2,2.6-3c1.9,1.4,2.5,1.8,4.3,3.3
	c0.3,0.3,0.4,0.4,0.4,0.5c0,0.2-0.3,0.4-0.6,0.4h-39.2l-2.8,0.1c-1,0.1-1,0.1-2.1,0.2l-0.4-2c1.8,0.3,3.3,0.5,5.2,0.5h14.8v-6.1
	h-9.6c-2.2,0-3,0-4.4,0.3l-0.4-1.9c1.5,0.3,3,0.4,4.7,0.4h9.6V31h-12.5c-3.6,0.1-3.6,0.1-4.7,0.3l-0.4-1.9c1.3,0.3,3.5,0.5,4.8,0.5
	h8c-0.3-0.3-0.3-0.3-0.7-1.4c-0.7-1.9-2.1-3.9-3.8-5.7l0.5-0.5c2,0.9,3.3,1.6,4.7,2.6c1.2,1,1.6,1.6,1.6,2.5c0,0.8-0.3,1.6-1,2.4
	C422.9,29.8,431.4,29.8,431.4,29.8z"/>
<path class="st1" d="M464.8,46c-2.5,2.8-3.3,3.6-5.8,5.5l-0.4-0.5c3.2-3.8,4.5-5.6,6.6-9.4c1.7-3.2,2.5-4.9,3.6-8
	c4.3,1.6,4.6,1.6,4.6,2.1c0,0.5-0.5,0.8-1.8,0.9c-1.7,3.1-2.5,4.2-4.5,6.8c2.1,0.5,2.4,0.6,2.5,1.1c0,0.3-0.6,0.6-1.5,0.8v8.2
	c0,3.3,0,5.8,0,7.7c0,2.3,0,2.3,0,3v3c-0.2,0.4-0.4,0.6-1.2,0.6c-0.2,0.1-1.3,0.1-1.5,0.1c-0.5,0-0.7-0.1-0.8-0.6
	c0.1-3.4,0.1-3.4,0.1-13.5V46z M459.4,36.7c2.5-2.5,4-4.6,6.4-8.3c1.6-2.6,2.2-3.8,3.1-5.8c1.5,0.5,3.4,1.2,4.6,1.8
	c0.3,0.1,0.4,0.3,0.4,0.5c0,0.5-0.4,0.6-2.2,0.7c-3.6,4.8-7.3,8.5-11.7,11.8L459.4,36.7z M470.6,62.5c1.1-2.8,1.6-4.8,2.8-10.7
	c0.8-4.1,1.3-8.7,1.3-11.4c0-0.1,0-0.4,0-0.6c4.4,0.8,5.1,1.1,5.1,1.6c0,0.4-0.4,0.6-1.8,0.9c-0.2,1-0.4,1.8-0.5,2.3
	c-1.3,7-1.6,7.9-2.9,11.4c-0.9,2.4-1.6,4-3.1,7L470.6,62.5z M487.2,33.9c0.9-1,0.9-1.1,2-2.3c-0.6-0.2-0.7-0.3-1-1.2
	c-0.6-1.9-0.9-2.7-2.2-4.8l0.4-0.5c1.4,0.7,2.7,1.5,3.7,2.4c0.5,0.4,0.7,0.9,0.7,1.4c0,1-0.5,2.1-1.3,2.6c1.4,1.2,1.7,1.5,3.2,3.1
	c0.1,0.1,0.2,0.3,0.2,0.4c0,0.2-0.2,0.3-0.6,0.3h-8.4v1.9c0,0.8-0.1,1.7-0.1,2.5v1.9c0,6.1,0.2,21.4,0.3,25.4
	c-0.1,0.4-0.3,0.6-0.6,0.7c-0.5,0.1-1.6,0.3-2.3,0.3c-0.5,0-0.7-0.2-0.7-0.5c0-0.1,0-0.2,0-0.3c0.2-13.1,0.2-14.8,0.2-18.7
	c0-1.9,0-6.2,0-13h-3.6c-0.9,0-1.6,0.1-3,0.2l-0.4-1.9c1.4,0.2,2.6,0.3,3.7,0.3h3.4c0-1.3,0-2.4,0-3c0-3.8,0-3.8-0.2-7.4
	c4.6,0.6,4.9,0.7,4.9,1.3c0,0.3-0.1,0.4-1.4,1l-0.1,8.2C483.9,33.9,487.2,33.9,487.2,33.9z M486.5,40.4c2.6,5.1,3.1,6.4,4.1,9.1
	c1.2,3.1,1.5,4.4,1.5,5.8c0,2.3-1.4,5.1-2.4,5.1c-0.4,0-0.5-0.1-0.6-1.7c-0.6-7.9-1.7-13.5-3.4-17.9L486.5,40.4z M500.3,52.1
	c0,0.6,0,2.3,0,4.9c0,2.5,0,3.3,0,7.3c0,1.3-0.3,1.8-0.9,2.4c-0.6,0.5-1.5,0.8-4.4,1.3c-0.3-2.5-0.9-2.9-6.2-3.6v-0.7
	c3.7,0.2,4.7,0.3,7.5,0.3c0.5,0,0.5-0.1,0.5-0.6V38.8h-2.7c-1.5,0-2,0-3.3,0.3l-0.4-1.9c1.2,0.3,2.7,0.4,3.9,0.4h5.2
	c1-1.4,1.4-1.8,2.4-3.2c1.8,1.6,2.3,2.1,4,3.8c0.1,0.1,0.1,0.3,0.1,0.3c0,0.1-0.2,0.3-0.4,0.3h-5.5V52.1L500.3,52.1z M498.9,27.7
	c1.1-1.4,1.4-1.7,2.4-3c1.7,1.5,2.2,2,3.8,3.5c0.1,0.1,0.1,0.3,0.1,0.4c0,0.2-0.2,0.3-0.5,0.3h-10.2c-0.7,0-1.3,0.1-2.6,0.2
	l-0.3-1.7c1.5,0.4,1.6,0.4,3.1,0.4H498.9z"/>
<path class="st1" d="M524.5,34.4c0-1.2-0.1-1.7-0.2-2.9c3.6,0.4,4.1,0.5,4.7,0.8c0.2,0.1,0.4,0.3,0.4,0.5c0,0.3,0,0.3-1.7,0.9v3.9
	h2.5c0.8-0.9,1.1-1.2,1.9-2.1c1,0.8,1.4,1,2.4,1.8c0.5,0.4,0.6,0.6,0.6,0.9c0,0.3-0.4,0.5-1.4,1.1c0,0.9,0,1.1,0,1.9
	c0,0.5,0,0.5,0,5.3c0.1,2.8,0.1,2.8,0.1,7.3c0,0.4-0.1,0.5-0.5,0.6c-0.4,0.1-1.4,0.3-2,0.3c-0.6,0-0.8-0.1-0.9-0.5v-1.5h-9v9.8
	c4.6-0.9,4.6-0.9,9.2-2.2c-1.4-2.1-2.1-3-3.8-4.7l0.4-0.4c4.7,2.8,5.7,3.5,7.2,5.1c0.8,0.8,1.1,1.4,1.1,2.3c0,1.7-0.8,3.3-1.6,3.3
	c-0.5,0-0.6-0.2-1.1-1.3c-0.5-1-0.9-2-1.6-3.1c-2.6,1.2-9.4,3.9-14,5.5c-0.1,1.4-0.4,1.8-0.8,1.8c-0.3,0-0.5-0.2-0.7-0.6
	c-0.1-0.2-0.3-0.7-0.6-1.6c-0.5-1.3-0.5-1.4-1-2.7c1.7-0.1,2.1-0.2,4.2-0.6V36.6c-2.1,2.3-3,3.1-5.1,4.7l-0.5-0.6
	c3.4-3.8,4.5-5.4,6.7-9.3c2.3-4.1,3.4-6.3,4.2-9c4.1,1.1,5.3,1.6,5.3,2.1c0,0.3-0.4,0.5-2.1,0.8l-0.3,0.4c2.4,0.6,4.1,1.3,5.7,2
	c1.8,0.9,2.3,1.5,2.3,3c0,1.5-0.5,2.5-1.3,2.5c-0.3,0-0.5-0.1-0.9-0.6c-2.1-2.7-4.5-4.9-6.4-5.9c-2.1,3.3-4.3,6.2-7.2,9.5
	c1,0.4,1.4,0.7,2.6,1.5h3L524.5,34.4L524.5,34.4z M530.5,43.9v-5.2h-9v5.2H530.5z M521.5,45v6.2h9V45H521.5z M545.5,29.3v-3.1
	c0-1.4,0-2.1-0.3-3.6c3.8,0.4,4.5,0.5,5,0.8c0.2,0.1,0.3,0.3,0.3,0.4c0,0.4-0.5,0.7-2,1.2v4.4h5.6c0.9-1.3,1.2-1.6,2.1-2.8
	c1.6,1.3,2.1,1.6,3.5,3c0.5,0.5,0.5,0.7,0.5,0.9c0,0.4-0.5,0.6-2.3,0.8c-1.9,1.5-2.5,1.9-4.3,3.1l-0.6-0.5c0.7-1,0.9-1.4,1.6-3.3
	h-14.8c-0.2,1.7-0.4,2.5-1,4.1c1.8,0.9,2,1.1,3.4,2h9.4c0.7-0.9,0.9-1.1,1.7-2c1.3,0.8,1.7,1,2.9,2c0.3,0.3,0.4,0.4,0.4,0.6
	c0,0.4-0.3,0.6-1.4,1.3c0,1.1,0,2.1,0,2.6c0,1.3,0,1.7,0.1,6.9c0,0.8-0.4,0.9-2.6,0.9c-0.4,0-0.5-0.1-0.7-0.4v-1.2H542v5.7h11.2
	c0.7-1.1,1-1.4,1.7-2.4c1.4,0.9,1.8,1.2,3,2c0.5,0.4,0.7,0.6,0.7,0.9c0,0.3-0.4,0.6-1.5,1.4c0,1.5,0,2.5,0,3.5c0,2.5,0,4.8,0.1,9.2
	c0,0.4-0.1,0.6-0.3,0.6c-0.5,0.2-1.5,0.4-2.6,0.4c-0.6,0-0.7-0.1-0.7-0.6v-3H542v3.3c0,0.4-0.2,0.5-0.5,0.6c-0.5,0.1-1.3,0.2-2,0.2
	c-0.5,0-0.8-0.1-0.8-0.5c0-0.1,0-0.2,0-0.3c0.1-7.3,0.1-22.3,0.1-26.6c0-1,0-1.1,0-2.9c0-1.4,0-2.6-0.1-3.6
	c-0.4,0.9-0.7,1.2-1.4,1.7c-0.3,0.2-0.8,0.4-0.9,0.4c-0.7,0-1.3-1.4-1.3-3.1c0-0.6,0.1-0.8,0.6-1c0.7-0.4,1.2-0.9,1.8-2
	c0.9-1.6,1.3-3.1,1.4-5.4h0.9c0.1,0.7,0.1,1.3,0.1,1.6c0,0.8,0,1.3-0.1,2.3C540,29.3,545.5,29.3,545.5,29.3z M552.2,45.9v-8.3H542
	v8.3H552.2z M553.7,63.4v-9.5H542v9.5H553.7z"/>
<g>
	<g>
		<g>
			<ellipse class="st2" cx="19.6" cy="48.7" rx="11.8" ry="1.3"/>
			
				<linearGradient id="SVGID_1_" gradientUnits="userSpaceOnUse" x1="-382.5717" y1="-523.8777" x2="-368.3513" y2="-461.3087" gradientTransform="matrix(0.528 0 0 0.528 220.6551 278.4321)">
				<stop  offset="5.615000e-03" style="stop-color:#82BD59"/>
				<stop  offset="1" style="stop-color:#00683D"/>
			</linearGradient>
			<polygon class="st3" points="29.2,5.8 19.6,0.2 9.9,5.8 19.6,11.3 			"/>
			<path class="st4" d="M9.8,5.6v0.3l9.7,5.6h0.2l9.7-5.6V5.6L19.6,0h-0.2L9.8,5.6 M19.6,0.4c0.2,0.1,8.7,5,9.3,5.4
				c-0.6,0.3-9.1,5.3-9.3,5.4c-0.2-0.1-8.7-5-9.3-5.4C10.8,5.4,19.4,0.5,19.6,0.4z"/>
			<path class="st4" d="M19.5,11.2l-0.1,0.2v11.2l0.3,0.2l9.7-5.6l0.1-0.2V5.8l-0.3-0.2L19.5,11.2 M29,6.1c0,0.6,0,10.5,0,10.7
				c-0.2,0.1-8.7,5-9.3,5.4c0-0.6,0-10.5,0-10.7C19.9,11.3,28.5,6.4,29,6.1z"/>
			<path class="st4" d="M9.7,5.8v11.2l0.1,0.2l9.7,5.6l0.3-0.2V11.3l-0.1-0.2L10,5.6L9.7,5.8 M10.1,6.1c0.5,0.3,9.1,5.3,9.3,5.4
				c0,0.2,0,10.1,0,10.7c-0.5-0.3-9.1-5.3-9.3-5.4C10.1,16.6,10.1,6.7,10.1,6.1z"/>
			<path class="st4" d="M9.8,16.8l-9.7,5.6v0.3l9.7,5.6H10l9.7-5.6v-0.3L10,16.8H9.8 M9.9,17.2c0.2,0.1,8.7,5,9.3,5.4
				c-0.6,0.3-9.1,5.3-9.3,5.4c-0.2-0.1-8.7-5-9.3-5.4C1.1,22.2,9.7,17.3,9.9,17.2z"/>
			<path class="st4" d="M9.8,27.9l-0.1,0.2v11.2l0.3,0.2l9.7-5.6l0.1-0.2V22.5l-0.3-0.2L9.8,27.9 M19.4,22.9c0,0.6,0,10.5,0,10.7
				c-0.2,0.1-8.7,5-9.3,5.4c0-0.6,0-10.5,0-10.7C10.3,28.1,18.8,23.2,19.4,22.9z"/>
			
				<linearGradient id="SVGID_2_" gradientUnits="userSpaceOnUse" x1="-419.0025" y1="-515.5944" x2="-404.7827" y2="-453.0277" gradientTransform="matrix(0.528 0 0 0.528 220.6551 278.4321)">
				<stop  offset="5.615000e-03" style="stop-color:#82BD59"/>
				<stop  offset="1" style="stop-color:#00683D"/>
			</linearGradient>
			<polygon class="st5" points="0.2,22.5 0.2,33.7 9.9,39.3 9.9,28.1 			"/>
			<path class="st4" d="M0,22.5v11.2l0.1,0.2l9.7,5.6l0.3-0.2V28.1L10,27.9l-9.7-5.6L0,22.5 M0.4,22.9c0.5,0.3,9.1,5.2,9.3,5.4
				c0,0.2,0,10.1,0,10.7c-0.6-0.3-9.1-5.2-9.3-5.4C0.4,33.4,0.4,23.5,0.4,22.9z"/>
			
				<linearGradient id="SVGID_3_" gradientUnits="userSpaceOnUse" x1="-400.8835" y1="-489.8778" x2="-366.0437" y2="-388.2043" gradientTransform="matrix(0.528 0 0 0.528 220.6551 278.4321)">
				<stop  offset="5.615000e-03" style="stop-color:#82BD59"/>
				<stop  offset="1" style="stop-color:#00683D"/>
			</linearGradient>
			<polygon class="st6" points="9.9,28.1 9.9,39.3 19.6,44.9 19.6,33.7 			"/>
			<path class="st4" d="M9.7,28.1v11.2l0.1,0.2l9.7,5.6l0.3-0.2V33.7l-0.1-0.2L10,27.9L9.7,28.1 M10.1,28.4c0.5,0.3,9.1,5.3,9.3,5.4
				c0,0.2,0,10.1,0,10.7c-0.5-0.3-9.1-5.3-9.3-5.4C10.1,38.9,10.1,29.1,10.1,28.4z"/>
			
				<linearGradient id="SVGID_4_" gradientUnits="userSpaceOnUse" x1="-367.432" y1="-527.3192" x2="-353.212" y2="-464.752" gradientTransform="matrix(0.528 0 0 0.528 220.6551 278.4321)">
				<stop  offset="5.615000e-03" style="stop-color:#82BD59"/>
				<stop  offset="1" style="stop-color:#00683D"/>
			</linearGradient>
			<polygon class="st7" points="38.9,11.3 29.2,5.8 19.6,11.3 29.2,16.9 			"/>
			<path class="st4" d="M29.1,5.6l-9.7,5.6v0.3l9.7,5.6h0.2l9.7-5.6v-0.3l-9.7-5.6H29.1 M29.2,6c0.2,0.1,8.7,5,9.3,5.4
				c-0.6,0.3-9.1,5.3-9.3,5.4c-0.2-0.1-8.7-5-9.3-5.4C20.5,11,29,6.1,29.2,6z"/>
			<path class="st4" d="M29.1,16.8l-9.7,5.6v0.3l9.7,5.6h0.2l9.7-5.6v-0.3l-9.7-5.6H29.1 M29.2,17.2c0.2,0.1,8.7,5,9.3,5.4
				c-0.6,0.3-9.1,5.3-9.3,5.4c-0.2-0.1-8.7-5-9.3-5.4C20.5,22.2,29,17.3,29.2,17.2z"/>
			
				<linearGradient id="SVGID_5_" gradientUnits="userSpaceOnUse" x1="-366.7236" y1="-527.4781" x2="-352.504" y2="-464.9128" gradientTransform="matrix(0.528 0 0 0.528 220.6551 278.4321)">
				<stop  offset="5.615000e-03" style="stop-color:#82BD59"/>
				<stop  offset="1" style="stop-color:#00683D"/>
			</linearGradient>
			<polygon class="st8" points="29.2,28.1 29.2,39.3 38.9,33.7 38.9,22.5 			"/>
			<path class="st4" d="M29.1,27.9L29,28.1v11.2l0.3,0.2l9.7-5.6l0.1-0.2V22.5l-0.3-0.2L29.1,27.9 M38.7,22.9c0,0.6,0,10.5,0,10.7
				c-0.2,0.1-8.7,5-9.3,5.4c0-0.6,0-10.5,0-10.7C29.6,28.1,38.2,23.2,38.7,22.9z"/>
			<path class="st4" d="M19.4,22.5v11.2l0.1,0.2l9.7,5.6l0.3-0.2V28.1l-0.1-0.2l-9.7-5.6L19.4,22.5 M19.7,22.9
				c0.5,0.3,9.1,5.2,9.3,5.4c0,0.2,0,10.1,0,10.7c-0.6-0.3-9.1-5.2-9.3-5.4C19.7,33.4,19.7,23.5,19.7,22.9z"/>
			
				<linearGradient id="SVGID_6_" gradientUnits="userSpaceOnUse" x1="-391.1518" y1="-493.2072" x2="-356.3133" y2="-391.5376" gradientTransform="matrix(0.528 0 0 0.528 220.6551 278.4321)">
				<stop  offset="5.615000e-03" style="stop-color:#82BD59"/>
				<stop  offset="1" style="stop-color:#00683D"/>
			</linearGradient>
			<polygon class="st9" points="9.9,16.9 9.9,28.1 19.5,22.5 19.5,11.3 			"/>
			<path class="st4" d="M9.8,16.8l-0.1,0.2v11.2l0.3,0.2l9.7-5.6l0.1-0.2V11.3l-0.3-0.2L9.8,16.8 M19.4,11.7c0,0.6,0,10.5,0,10.7
				c-0.2,0.1-8.7,5-9.3,5.4c0-0.6,0-10.5,0-10.7C10.3,16.9,18.8,12,19.4,11.7z"/>
			
				<linearGradient id="SVGID_7_" gradientUnits="userSpaceOnUse" x1="-374.7488" y1="-498.8284" x2="-339.9118" y2="-397.1629" gradientTransform="matrix(0.528 0 0 0.528 220.6551 278.4321)">
				<stop  offset="5.615000e-03" style="stop-color:#82BD59"/>
				<stop  offset="1" style="stop-color:#00683D"/>
			</linearGradient>
			<polygon class="st10" points="19.6,11.3 19.6,22.5 29.2,28.1 29.2,16.9 			"/>
			<path class="st4" d="M19.4,11.3v11.2l0.1,0.2l9.7,5.6l0.3-0.2V16.9l-0.1-0.2l-9.7-5.6L19.4,11.3 M19.7,11.7
				c0.5,0.3,9.1,5.3,9.3,5.4c0,0.2,0,10.1,0,10.7c-0.6-0.3-9.1-5.3-9.3-5.4C19.7,22.2,19.7,12.3,19.7,11.7z"/>
			
				<linearGradient id="SVGID_8_" gradientUnits="userSpaceOnUse" x1="-384.4838" y1="-495.4971" x2="-349.6468" y2="-393.8316" gradientTransform="matrix(0.528 0 0 0.528 220.6551 278.4321)">
				<stop  offset="5.615000e-03" style="stop-color:#82BD59"/>
				<stop  offset="1" style="stop-color:#00683D"/>
			</linearGradient>
			<polygon class="st11" points="19.6,33.7 19.6,44.9 29.2,39.3 29.2,28.1 			"/>
			<path class="st4" d="M19.5,33.5l-0.1,0.2v11.2l0.3,0.2l9.7-5.6l0.1-0.2V28.1l-0.3-0.2L19.5,33.5 M29,28.4c0,0.6,0,10.5,0,10.7
				c-0.2,0.1-8.7,5-9.3,5.4c0-0.6,0-10.5,0-10.7C19.9,33.7,28.5,28.8,29,28.4z"/>
			
				<linearGradient id="SVGID_9_" gradientUnits="userSpaceOnUse" x1="-402.2861" y1="-519.3976" x2="-388.0652" y2="-456.8264" gradientTransform="matrix(0.528 0 0 0.528 220.6551 278.4321)">
				<stop  offset="5.615000e-03" style="stop-color:#82BD59"/>
				<stop  offset="1" style="stop-color:#00683D"/>
			</linearGradient>
			<polygon class="st12" points="19.5,11.3 9.9,5.8 0.2,11.3 9.9,16.9 			"/>
			<path class="st4" d="M9.8,5.6l-9.7,5.6v0.3l9.7,5.6H10l9.7-5.6v-0.3L10,5.6H9.8 M9.9,6c0.2,0.1,8.7,5,9.3,5.4
				c-0.6,0.3-9.1,5.3-9.3,5.4c-0.2-0.1-8.7-5-9.3-5.4C1.1,11,9.7,6.1,9.9,6z"/>
			
				<linearGradient id="SVGID_10_" gradientUnits="userSpaceOnUse" x1="-362.1501" y1="-528.5187" x2="-347.9305" y2="-465.9531" gradientTransform="matrix(0.528 0 0 0.528 220.6551 278.4321)">
				<stop  offset="5.615000e-03" style="stop-color:#82BD59"/>
				<stop  offset="1" style="stop-color:#00683D"/>
			</linearGradient>
			<polygon class="st13" points="29.2,16.9 29.2,28.1 38.9,22.5 38.9,11.3 			"/>
			<path class="st4" d="M29.1,16.8L29,16.9v11.2l0.3,0.2l9.7-5.6l0.1-0.2V11.3l-0.3-0.2L29.1,16.8 M38.7,11.7c0,0.6,0,10.5,0,10.7
				c-0.2,0.1-8.7,5-9.3,5.4c0-0.6,0-10.5,0-10.7C29.6,16.9,38.2,12,38.7,11.7z"/>
			
				<linearGradient id="SVGID_11_" gradientUnits="userSpaceOnUse" x1="-414.4301" y1="-516.6353" x2="-400.2107" y2="-454.0706" gradientTransform="matrix(0.528 0 0 0.528 220.6551 278.4321)">
				<stop  offset="5.615000e-03" style="stop-color:#82BD59"/>
				<stop  offset="1" style="stop-color:#00683D"/>
			</linearGradient>
			<polygon class="st14" points="0.2,11.3 0.2,22.5 9.9,28.1 9.9,16.9 			"/>
			<path class="st4" d="M0,11.3v11.2l0.1,0.2l9.7,5.6l0.3-0.2V16.9L10,16.8l-9.7-5.6L0,11.3 M0.4,11.7C0.9,12,9.5,16.9,9.7,17
				c0,0.2,0,10.1,0,10.7c-0.6-0.3-9.1-5.3-9.3-5.4C0.4,22.2,0.4,12.3,0.4,11.7z"/>
			
				<linearGradient id="SVGID_12_" gradientUnits="userSpaceOnUse" x1="-400.5263" y1="-513.8456" x2="-369.2458" y2="-450.575" gradientTransform="matrix(0.528 0 0 0.528 220.6551 278.4321)">
				<stop  offset="5.615000e-03" style="stop-color:#82BD59"/>
				<stop  offset="1" style="stop-color:#00683D"/>
			</linearGradient>
			<polygon class="st15" points="29.2,28.1 19.6,22.5 9.9,28.1 19.6,33.7 			"/>
			<path class="st4" d="M19.5,22.3l-9.7,5.6v0.3l9.7,5.6h0.2l9.7-5.6v-0.3l-9.7-5.6H19.5 M19.6,22.7c0.2,0.1,8.7,5,9.3,5.4
				c-0.6,0.3-9.1,5.3-9.3,5.4c-0.2-0.1-8.7-5-9.3-5.4C10.8,27.8,19.4,22.9,19.6,22.7z"/>
		</g>
		<g>
			<path class="st16" d="M52.8,25.8l3.4-7.6l3.3,7.6H52.8z M61.3,29.8c0.3,0.7,0.5,1.1,0.5,1.2c0.1,0.2,0.1,0.4,0.1,0.6
				c0,0.3-0.1,0.6-0.4,0.8c-0.3,0.2-1,0.4-1.8,0.4h-0.4v0.6H70v-0.6c-0.7-0.1-1.2-0.3-1.6-0.6c-0.5-0.5-1.1-1.6-1.9-3.3l-8-18.3
				h-0.3l-8,17.8c-0.8,1.7-1.4,2.9-1.9,3.4c-0.5,0.6-1.2,0.9-2,1v0.6h7.4v-0.6c-1.2-0.1-1.9-0.2-2.2-0.4c-0.5-0.3-0.8-0.8-0.8-1.4
				c0-0.5,0.1-1.1,0.5-1.8l1-2.2H60L61.3,29.8z"/>
			<path class="st16" d="M91,11.1l-13.1,21h4.2c2,0,3.4-0.1,4.2-0.4c1.3-0.4,2.4-1.1,3.4-2.2c0.9-1.1,1.6-2.5,2-4.2h0.6l-0.9,8.1
				H70.9l13.1-21.1h-3.3c-1.3,0-2.1,0-2.5,0.1c-0.8,0.1-1.5,0.4-2.2,0.8c-0.7,0.4-1.2,1-1.7,1.7c-0.4,0.7-0.8,1.6-1,2.7h-0.6
				l0.6-6.5H91z"/>
			<path class="st16" d="M104.9,27.4h-9.6V24h9.6V27.4z"/>
		</g>
	</g>
	<g>
		<path class="st16" d="M120.1,10.6c3.6-0.1,6.5,0.9,8.7,3.1c2.2,2.2,3.4,5,3.4,8.3c0,2.8-0.8,5.3-2.5,7.5c-2.2,2.9-5.3,4.3-9.3,4.3
			c-4,0-7.2-1.4-9.4-4.1c-1.7-2.2-2.6-4.7-2.6-7.7c0-3.3,1.1-6.1,3.4-8.3C114,11.5,116.8,10.4,120.1,10.6z M120.3,11.6
			c-2.1,0-3.6,1-4.7,3.1c-0.9,1.7-1.3,4.2-1.3,7.4c0,3.8,0.7,6.7,2,8.5c0.9,1.3,2.3,1.9,3.9,1.9c1.1,0,2.1-0.3,2.8-0.8
			c1-0.7,1.7-1.8,2.3-3.4c0.5-1.5,0.8-3.6,0.8-6.1c0-3-0.3-5.2-0.8-6.7c-0.6-1.5-1.3-2.5-2.1-3.1C122.4,11.9,121.4,11.6,120.3,11.6z
			"/>
		<path class="st16" d="M141.6,10.9l11.1,13.9v-9.6c0-1.3-0.2-2.3-0.6-2.7c-0.5-0.6-1.4-0.9-2.7-0.9v-0.6h7.4v0.6
			c-0.9,0.1-1.6,0.3-1.9,0.5c-0.3,0.2-0.6,0.5-0.8,0.9s-0.3,1.2-0.3,2.2v18.7h-0.6l-15.2-18.7v14.3c0,1.3,0.3,2.2,0.9,2.6
			c0.6,0.5,1.3,0.7,2,0.7h0.5v0.6h-8v-0.6c1.2,0,2.1-0.3,2.6-0.8c0.5-0.5,0.7-1.3,0.7-2.5V13.6l-0.5-0.6c-0.5-0.6-0.9-1-1.3-1.2
			c-0.4-0.2-0.9-0.3-1.6-0.3v-0.6H141.6z"/>
		<path class="st16" d="M166.7,12.2v9.1h0.4c1.4,0,2.5-0.4,3.1-1.3c0.6-0.9,1-2.2,1.2-4h0.6v11.7h-0.6c-0.1-1.3-0.4-2.3-0.8-3.1
			c-0.4-0.8-0.9-1.4-1.5-1.6c-0.6-0.3-1.4-0.4-2.4-0.4v6.3c0,1.2,0.1,2,0.2,2.3c0.1,0.3,0.3,0.5,0.6,0.7c0.3,0.2,0.8,0.3,1.4,0.3
			h1.3c2.1,0,3.8-0.5,5-1.5c1.3-1,2.2-2.4,2.7-4.4h0.6l-1,7.1h-19.4v-0.6h0.7c0.7,0,1.2-0.1,1.6-0.3c0.3-0.2,0.5-0.4,0.7-0.8
			c0.1-0.3,0.2-1,0.2-2.1V14.7c0-1,0-1.6-0.1-1.9c-0.1-0.4-0.3-0.7-0.6-0.9c-0.4-0.3-1-0.5-1.7-0.5h-0.7v-0.6H177v6.6h-0.6
			c-0.3-1.6-0.8-2.8-1.3-3.5c-0.6-0.7-1.4-1.2-2.5-1.6c-0.6-0.2-1.8-0.3-3.5-0.3H166.7z"/>
	</g>
</g>
</svg>
