<?xml version="1.0" encoding="utf-8"?>
<!-- Generator: Adobe Illustrator 22.0.1, SVG Export Plug-In . SVG Version: 6.00 Build 0)  -->
<svg version="1.1" id="レイヤー_1" xmlns="http://www.w3.org/2000/svg" xmlns:xlink="http://www.w3.org/1999/xlink" x="0px"
	 y="0px" viewBox="0 0 55 32" style="enable-background:new 0 0 55 32;" xml:space="preserve">
<style type="text/css">
	.st0{fill:#B97054;}
	.st1{fill:#FFFFFF;}
</style>
<g>
	<path class="st0" d="M55,16c0,8.8-7.2,16-16,16H16C7.2,32,0,24.8,0,16l0,0C0,7.2,7.2,0,16,0h23C47.8,0,55,7.2,55,16L55,16z"/>
</g>
<g>
	<path class="st1" d="M15.6171,12.835c-0.4082,0.3769-0.6269,0.5449-1.1963,0.9805c-0.4521-0.5332-0.6416-0.7286-1.0644-1.0645
		c1.3711-0.9531,2.1738-1.7383,2.7129-2.7031c0.1308-0.2383,0.248-0.4766,0.3066-0.6875l1.6914,0.3086
		c-0.1162,0.1679-0.1162,0.1679-0.3056,0.5039c-0.1456,0.2383-0.2627,0.4199-0.4668,0.7148h7.0752
		c0.8896,0,1.3847-0.0293,1.8378-0.084v1.5411c-0.4814-0.043-0.6855-0.0567-1.4296-0.0704v1.8633h0.5683
		c0.6856,0,1.0068-0.0136,1.4297-0.084v1.5684c-0.4229-0.0703-0.7578-0.084-1.4297-0.084h-0.5683v1.877h0.291
		c0.6855,0,1.0078-0.0137,1.3867-0.0703v1.541c-0.3789-0.0703-0.7295-0.084-1.3574-0.084h-9.9483
		c-0.5693,0-0.8896,0.0137-1.2978,0.084v-1.541c0.3935,0.0566,0.7734,0.0703,1.4297,0.0703h0.3349v-1.877h-0.6269
		c-0.6573,0-0.9922,0.0137-1.4297,0.084v-1.5684c0.4228,0.0704,0.7441,0.084,1.4297,0.084h0.6269V12.835z M13.5458,21.5751
		c0.8897-0.8398,1.3125-1.4433,1.8086-2.6191l1.3418,0.6445c-0.5976,1.3574-0.9765,1.9317-1.8808,2.9414L13.5458,21.5751z
		 M17.0616,14.1376h1.1816v-1.8633h-1.1816V14.1376z M17.0616,17.4151h1.1816v-1.877h-1.1816V17.4151z M17.747,22.4853
		c0-0.2246,0-0.4199,0-0.5742c0-0.5313-0.1172-1.793-0.2187-2.4786l1.415-0.1542c0.248,1.2734,0.335,1.8906,0.3935,3.0664
		L17.747,22.4853z M20.7812,14.1376v-1.8633h-1.211v1.8633H20.7812z M20.7812,17.4151v-1.877h-1.211v1.877H20.7812z
		 M21.1318,22.4443c-0.2188-1.3594-0.3067-1.752-0.6856-2.9414l1.4141-0.3086c0.4082,1.1054,0.5986,1.7226,0.8613,2.914
		L21.1318,22.4443z M23.334,14.1376v-1.8633h-1.2392v1.8633H23.334z M23.334,17.4151v-1.877h-1.2392v1.877H23.334z M25.288,22.458
		c-0.5244-1.1621-0.8887-1.7519-1.75-2.9277l1.2549-0.6035c0.8457,0.9961,1.2842,1.625,1.8955,2.6894L25.288,22.458z"/>
	<path class="st1" d="M33.6944,18.7743c-0.0733,0.1817-0.0879,0.252-0.1602,0.4747c-0.6133-0.6582-1.0215-1.2032-1.4746-1.9747
		c0.0742,0.9532,0.0879,1.1485,0.0879,1.5977v2.3105c0,0.6719,0.0146,1.0372,0.0879,1.4571h-1.6924
		c0.0732-0.4473,0.1025-0.8692,0.1025-1.4844v-1.8066c0-0.5606,0.0293-1.2188,0.0586-1.6817
		c-0.6562,1.541-1.123,2.3262-1.8964,3.1524c-0.1602-0.5469-0.4239-1.0508-0.7442-1.4434c0.6123-0.6016,1.0791-1.2187,1.5752-2.0723
		c0.3066-0.5195,0.3643-0.6601,0.7734-1.5839h-0.7587c-0.6416,0-0.9629,0.0136-1.3125,0.0703v-1.4844
		c0.3349,0.0547,0.6416,0.0703,1.3125,0.0703h0.9775v-3.3203c0-0.6309-0.0147-1.0371-0.0732-1.3731h1.663
		c-0.0586,0.3653-0.0732,0.6856-0.0732,1.3594v3.334h0.6855c0.5547,0,0.8028-0.0156,1.1231-0.0566v1.457
		c-0.3496-0.043-0.6406-0.0566-1.1524-0.0566h-0.5244c0.5401,0.8828,1.0791,1.5136,1.8819,2.1425
		c-0.2051,0.3516-0.2627,0.4766-0.4082,0.7852c0.3349-0.0137,0.8457-0.0977,1.3418-0.1953l3.413-0.7285v-6.4024
		c0-0.8125-0.0146-1.1894-0.0869-1.625h1.7647c-0.0733,0.4629-0.0879,0.8418-0.0879,1.6113v6.0801
		c0.5986-0.1406,0.8603-0.2109,1.2402-0.3515l0.3057,1.5976c-0.3926,0.041-0.8018,0.1113-1.4004,0.252l-0.1455,0.0273v2.0449
		c0,0.7852,0.0146,1.2051,0.0879,1.6543h-1.7647c0.0723-0.4765,0.0869-0.8125,0.0869-1.6679v-1.6953l-3.0927,0.6738
		c-0.6416,0.1387-1.0645,0.2519-1.3858,0.3496L33.6944,18.7743z M29.4784,10.4541c0.4668,1.2461,0.6856,1.961,0.8897,3.0254
		l-1.2256,0.5039c-0.2334-1.289-0.4951-2.1582-0.9043-2.998L29.4784,10.4541z M34.4814,10.9444
		c-0.3789,1.2871-0.5684,1.7773-1.166,3.039L32.25,13.4501c0.4668-0.9375,0.7149-1.666,1.0069-3.0254L34.4814,10.9444z
		 M35.2109,14.1241c1.1523,0.7558,1.7802,1.2734,2.5381,2.0585l-0.9922,1.1348c-1.0205-1.0508-1.5166-1.4707-2.5664-2.1582
		L35.2109,14.1241z M35.663,10.6221c1.2549,0.8398,1.7217,1.2324,2.5528,2.0586l-0.9922,1.1758
		c-1.0791-1.1055-1.1524-1.1621-2.5821-2.1563L35.663,10.6221z"/>
</g>
</svg>
