<?xml version="1.0" encoding="utf-8"?>
<!-- Generator: Adobe Illustrator 22.0.1, SVG Export Plug-In . SVG Version: 6.00 Build 0)  -->
<svg version="1.1" id="レイヤー_1" xmlns="http://www.w3.org/2000/svg" xmlns:xlink="http://www.w3.org/1999/xlink" x="0px"
	 y="0px" viewBox="0 0 55 32" style="enable-background:new 0 0 55 32;" xml:space="preserve">
<style type="text/css">
	.st0{fill:#106434;}
	.st1{fill:#FFFFFF;}
</style>
<g>
	<path class="st0" d="M55,16c0,8.8-7.2,16-16,16H16C7.2,32,0,24.8,0,16l0,0C0,7.2,7.2,0,16,0h23C47.8,0,55,7.2,55,16L55,16z"/>
</g>
<g>
	<path class="st1" d="M16.375,16.1534c-0.7725,0.7578-1.0645,0.9961-2.1143,1.7656c-0.3066-0.6172-0.5254-0.9102-0.9922-1.3594
		c0.9766-0.6015,1.6621-1.1484,2.4502-1.9179c0.7442-0.7149,1.1963-1.2891,1.7354-2.1993h-2.0567
		c-0.7148,0-1.2392,0.0274-1.7353,0.084v-1.5547c0.5107,0.0547,1.0205,0.084,1.751,0.084h2.7421
		c0.2325-0.5742,0.3643-1.0508,0.4229-1.5137l1.8232,0.1973c-0.1015,0.209-0.1308,0.2656-0.3203,0.7832
		c-0.0586,0.168-0.0879,0.2383-0.205,0.5332h5.208c0.7148,0,1.2255-0.0293,1.706-0.084v1.5547
		c-0.4805-0.0566-1.0205-0.084-1.706-0.084h-5.8643c-0.2627,0.461-0.4375,0.7422-0.7148,1.1758h4.9892
		c0.7295,0,1.0938-0.0137,1.5166-0.0547c-0.043,0.4336-0.0586,0.8809-0.0586,1.5957v5.8418c0,0.545-0.1748,0.9102-0.5537,1.1348
		c-0.2773,0.1543-0.8174,0.2227-1.707,0.2227c-0.335,0-0.6123-0.0137-1.3418-0.0411c-0.0733-0.6308-0.1455-0.9394-0.3799-1.4707
		c0.8174,0.0977,1.2402,0.125,1.6934,0.125c0.6406,0,0.7285-0.0547,0.7285-0.3906v-1.0644h-5.4551v1.1894
		c0,0.7559,0.0293,1.2461,0.0723,1.752h-1.7207c0.0586-0.5059,0.0869-1.0508,0.0869-1.7657V16.1534z M23.3916,14.9639h-5.4551
		v1.0215h5.4551V14.9639z M17.9366,17.2334v1.0351h5.4551v-1.0351H17.9366z"/>
	<path class="st1" d="M33.7803,18.6133c-0.0722,0.1816-0.0869,0.2519-0.1601,0.4746c-0.6123-0.6582-1.0205-1.2032-1.4727-1.9746
		c0.0723,0.9531,0.0879,1.1484,0.0879,1.5976v2.3106c0,0.6718,0.0137,1.0371,0.0869,1.457h-1.6923
		c0.0732-0.4473,0.1025-0.8692,0.1025-1.4844v-1.8066c0-0.5606,0.0283-1.2188,0.0576-1.6817
		c-0.6562,1.541-1.123,2.3262-1.8965,3.1524c-0.1601-0.5469-0.4218-1.0508-0.7431-1.4434c0.6123-0.6015,1.0791-1.2187,1.5752-2.0722
		c0.3066-0.5196,0.3652-0.6602,0.7734-1.584h-0.7588c-0.6416,0-0.9629,0.0136-1.3135,0.0703v-1.4844
		c0.336,0.0547,0.6426,0.0703,1.3135,0.0703h0.9775v-3.3203c0-0.6309-0.0146-1.0371-0.0732-1.373h1.6631
		c-0.0586,0.3652-0.0723,0.6855-0.0723,1.3593v3.334h0.6856c0.5537,0,0.8017-0.0156,1.123-0.0566v1.457
		c-0.3506-0.043-0.6426-0.0566-1.1523-0.0566h-0.5254c0.539,0.8828,1.0791,1.5136,1.8808,2.1425
		c-0.2031,0.3516-0.2617,0.4766-0.4082,0.7852c0.336-0.0137,0.8467-0.0977,1.3418-0.1953l3.4141-0.7285v-6.4024
		c0-0.8125-0.0146-1.1894-0.0879-1.625h1.7656c-0.0732,0.4629-0.0879,0.8418-0.0879,1.6114v6.08
		c0.5977-0.1406,0.8614-0.2109,1.2403-0.3515l0.3066,1.5976c-0.3945,0.041-0.8027,0.1114-1.4004,0.252l-0.1465,0.0273v2.0449
		c0,0.7852,0.0147,1.2051,0.0879,1.6543h-1.7656c0.0733-0.4765,0.0879-0.8125,0.0879-1.6679v-1.6953l-3.0918,0.6738
		c-0.6426,0.1387-1.0654,0.2519-1.3867,0.3496L33.7803,18.6133z M29.5654,10.2929c0.4668,1.2461,0.6856,1.961,0.8897,3.0254
		l-1.2256,0.5039c-0.2334-1.289-0.4961-2.1582-0.9043-2.998L29.5654,10.2929z M34.5693,10.7832
		c-0.3799,1.2871-0.5693,1.7773-1.168,3.039l-1.0644-0.5332c0.4668-0.9375,0.7148-1.666,1.0058-3.0254L34.5693,10.7832z
		 M35.2978,13.9629c1.1524,0.7558,1.7793,1.2734,2.5391,2.0586l-0.9922,1.1347c-1.0215-1.0508-1.5176-1.4707-2.5684-2.1582
		L35.2978,13.9629z M35.75,10.4609c1.2549,0.8399,1.7217,1.2324,2.5537,2.0586l-0.9922,1.1758
		c-1.0801-1.1055-1.1523-1.1621-2.582-2.1563L35.75,10.4609z"/>
</g>
</svg>
